<svg preserveAspectRatio="none" width="100%" height="100%" overflow="visible" style="display: block;" viewBox="0 0 408.652 361.121" fill="none" xmlns="http://www.w3.org/2000/svg">
<g id="envelope">
<g id="Vector 4" filter="url(#filter0_d_0_460)">
<path d="M87.3262 178.839L201.162 88.4296C203.015 86.9583 205.637 86.9583 207.49 88.4296L321.326 178.839L302.674 273.795H105.978L87.3262 178.839Z" fill="url(#paint0_radial_0_460)"/>
<path d="M321.326 178.839L302.674 273.795H105.978L87.3262 178.839L201.162 88.4296C203.015 86.9583 205.637 86.9583 207.49 88.4296L321.326 178.839ZM87.3262 178.839L204.326 194.793M105.978 273.795L204.326 233.065M204.326 194.793L153.445 201.732C148.3 202.433 147.389 209.485 152.186 211.472L204.326 233.065L302.674 273.795M321.326 178.839L204.326 194.793" stroke="var(--stroke-0, white)" stroke-width="5.08696" stroke-linejoin="round"/>
</g>
</g>
<defs>
<filter id="filter0_d_0_460" x="3.33786e-06" y="-2.74181e-06" width="408.652" height="361.121" filterUnits="userSpaceOnUse" color-interpolation-filters="sRGB">
<feFlood flood-opacity="0" result="BackgroundImageFix"/>
<feColorMatrix in="SourceAlpha" type="matrix" values="0 0 0 0 0 0 0 0 0 0 0 0 0 0 0 0 0 0 127 0" result="hardAlpha"/>
<feOffset/>
<feGaussianBlur stdDeviation="42.3913"/>
<feComposite in2="hardAlpha" operator="out"/>
<feColorMatrix type="matrix" values="0 0 0 0 0.666667 0 0 0 0 0.945098 0 0 0 0 0.505882 0 0 0 0.25 0"/>
<feBlend mode="normal" in2="BackgroundImageFix" result="effect1_dropShadow_0_460"/>
<feBlend mode="normal" in="SourceGraphic" in2="effect1_dropShadow_0_460" result="shape"/>
</filter>
<radialGradient id="paint0_radial_0_460" cx="0" cy="0" r="1" gradientUnits="userSpaceOnUse" gradientTransform="translate(206.022 180.365) rotate(90) scale(94.4478 118.696)">
<stop stop-color="#A6F07B"/>
<stop offset="1" stop-color="white"/>
</radialGradient>
</defs>
</svg>
