<svg preserveAspectRatio="none" width="100%" height="100%" overflow="visible" style="display: block;" viewBox="0 0 408.652 269.609" fill="none" xmlns="http://www.w3.org/2000/svg">
<g id="envelope">
<g id="Vector 3" filter="url(#filter0_d_0_69)">
<path fill-rule="evenodd" clip-rule="evenodd" d="M87.3261 87.3261L105.978 182.283H302.674L321.326 87.3261L223.68 149.568L207.06 160.161C205.393 161.224 203.26 161.224 201.592 160.161L184.972 149.568L87.3261 87.3261Z" fill="url(#paint0_radial_0_69)"/>
<path d="M321.326 87.3261H204.326H87.3261L184.972 149.568L201.592 160.161C203.26 161.224 205.393 161.224 207.06 160.161L223.68 149.568L321.326 87.3261Z" fill="white"/>
<path d="M302.674 182.283H105.978L87.3261 87.3261H204.326H321.326L302.674 182.283ZM223.68 149.568L207.06 160.161C205.393 161.224 203.26 161.224 201.592 160.161L184.972 149.568L87.3261 87.3261M105.978 182.283L184.972 149.568M302.674 182.283L223.68 149.568M321.326 87.3261L223.68 149.568" stroke="var(--stroke-0, white)" stroke-width="5.08696" stroke-linejoin="round"/>
</g>
</g>
<defs>
<filter id="filter0_d_0_69" x="3.09944e-06" y="1.90735e-06" width="408.652" height="269.609" filterUnits="userSpaceOnUse" color-interpolation-filters="sRGB">
<feFlood flood-opacity="0" result="BackgroundImageFix"/>
<feColorMatrix in="SourceAlpha" type="matrix" values="0 0 0 0 0 0 0 0 0 0 0 0 0 0 0 0 0 0 127 0" result="hardAlpha"/>
<feOffset/>
<feGaussianBlur stdDeviation="42.3913"/>
<feComposite in2="hardAlpha" operator="out"/>
<feColorMatrix type="matrix" values="0 0 0 0 0.666667 0 0 0 0 0.945098 0 0 0 0 0.505882 0 0 0 0.25 0"/>
<feBlend mode="normal" in2="BackgroundImageFix" result="effect1_dropShadow_0_69"/>
<feBlend mode="normal" in="SourceGraphic" in2="effect1_dropShadow_0_69" result="shape"/>
</filter>
<radialGradient id="paint0_radial_0_69" cx="0" cy="0" r="1" gradientUnits="userSpaceOnUse" gradientTransform="translate(206.022 88.852) rotate(90) scale(94.4479 118.696)">
<stop stop-color="#A6F07B"/>
<stop offset="1" stop-color="white"/>
</radialGradient>
</defs>
</svg>
