<svg width="400" height="322" viewBox="0 0 400 322" fill="none" xmlns="http://www.w3.org/2000/svg">
<g filter="url(#filter0_d_13_1261)">
<path fill-rule="evenodd" clip-rule="evenodd" d="M82.5435 144L101.196 238.957H297.891L316.543 144L218.897 206.242L202.278 216.835C200.61 217.898 198.477 217.898 196.809 216.835L180.19 206.242L82.5435 144Z" fill="url(#paint0_radial_13_1261)"/>
<path d="M316.543 144H199.543H82.5435L180.19 206.242L196.809 216.835C198.477 217.898 200.61 217.898 202.278 216.835L218.897 206.242L316.543 144Z" fill="white"/>
<path d="M297.891 238.957H101.196L82.5435 144H199.543H316.543L297.891 238.957ZM218.897 206.242L202.278 216.835C200.61 217.898 198.477 217.898 196.809 216.835L180.19 206.242L82.5435 144M101.196 238.957L180.19 206.242M297.891 238.957L218.897 206.242M316.543 144L218.897 206.242" stroke="white" stroke-width="5.08696" stroke-linejoin="round"/>
</g>
<defs>
<filter id="filter0_d_13_1261" x="0" y="61.4565" width="399.087" height="260.043" filterUnits="userSpaceOnUse" color-interpolation-filters="sRGB">
<feFlood flood-opacity="0" result="BackgroundImageFix"/>
<feColorMatrix in="SourceAlpha" type="matrix" values="0 0 0 0 0 0 0 0 0 0 0 0 0 0 0 0 0 0 127 0" result="hardAlpha"/>
<feOffset/>
<feGaussianBlur stdDeviation="40"/>
<feComposite in2="hardAlpha" operator="out"/>
<feColorMatrix type="matrix" values="0 0 0 0 0.666667 0 0 0 0 0.945098 0 0 0 0 0.505882 0 0 0 0.25 0"/>
<feBlend mode="normal" in2="BackgroundImageFix" result="effect1_dropShadow_13_1261"/>
<feBlend mode="normal" in="SourceGraphic" in2="effect1_dropShadow_13_1261" result="shape"/>
</filter>
<radialGradient id="paint0_radial_13_1261" cx="0" cy="0" r="1" gradientUnits="userSpaceOnUse" gradientTransform="translate(201.239 145.526) rotate(90) scale(94.4479 118.696)">
<stop stop-color="#A6F07B"/>
<stop offset="1" stop-color="white"/>
</radialGradient>
</defs>
</svg>
