<svg preserveAspectRatio="none" width="100%" height="100%" overflow="visible" style="display: block;" viewBox="0 0 120.488 73.3834" fill="none" xmlns="http://www.w3.org/2000/svg">
<g id="-Hi">
<path id="Vector 30" d="M52.2225 3.7455C56.2224 23.6054 57.0271 29.6028 58.0241 34.6662C59.0211 44.5905 60.6306 55.1 61.6276 62.2225C61.8318 64.8443 61.8318 68.5575 61.8318 72.3832" stroke="var(--stroke-0, #61A200)" stroke-width="2" stroke-linecap="round"/>
<path id="Vector 31" d="M83.7956 1C83.7956 3.99129 87.4762 19.367 93.0531 40.8896C96.0534 54.2201 98.6633 62.9221 99.405 66.3156C99.7787 67.8396 100.147 68.9613 101.641 72.3832" stroke="var(--stroke-0, #61A200)" stroke-width="2" stroke-linecap="round"/>
<path id="Vector 32" d="M63.2041 38.0639C65.4392 38.7031 69.9206 40.64 80.0122 40.8095C82.2866 40.6497 83.3986 40.3301 84.5273 40.0057C85.6561 39.6812 86.768 39.3616 87.9137 39.0324" stroke="var(--stroke-0, #61A200)" stroke-width="2" stroke-linecap="round"/>
<path id="Vector 33" d="M113.996 35.3186C115.457 44.8364 116.918 50.1672 117.472 54.7488C117.653 55.8985 118.016 57.031 118.384 58.1807C118.752 59.3304 119.114 60.4629 119.487 62.7737" stroke="var(--stroke-0, #61A200)" stroke-width="2" stroke-linecap="round"/>
<path id="Vector 34" d="M110.991 21.5912C109.944 21.081 107.625 19.2285 106.617 17.6282C105.83 16.3773 105.72 14.5898 105.769 13.0405C105.791 12.3497 106.875 12.2117 107.558 12.057C109.153 11.6963 110.668 12.7219 112.198 13.2909C112.924 13.5611 113.519 13.962 114.098 14.3207C115.552 15.222 115.313 17.2555 115.368 19.5208C115.381 20.0442 115.211 20.348 115.053 20.6588C114.895 20.9696 114.686 21.2758 114.057 21.4335C113.427 21.5912 112.383 21.5912 111.307 21.5912" stroke="var(--stroke-0, #61A200)" stroke-width="2" stroke-linecap="round"/>
<path id="Vector 35" d="M1.00017 60.6391C17.9031 57.5716 20.791 56.438 27.1401 54.4784C28.8015 53.8958 34.8159 51.4982 36.5279 50.6878C38.2399 49.8773 41.0237 48.4996 43.2716 47.4056" stroke="var(--stroke-0, #61A200)" stroke-width="2" stroke-linecap="round"/>
</g>
</svg>
