<svg preserveAspectRatio="none" width="100%" height="100%" overflow="visible" style="display: block;" viewBox="0 0 100 49" fill="none" xmlns="http://www.w3.org/2000/svg">
<g id="arrow">
<path id="Arrow" d="M51 31C51 29.8954 50.1046 29 49 29C47.8954 29 47 29.8954 47 31L49 31L51 31ZM47.5858 33.9142C48.3668 34.6953 49.6332 34.6953 50.4142 33.9142L63.1421 21.1863C63.9232 20.4052 63.9232 19.1389 63.1421 18.3579C62.3611 17.5768 61.0948 17.5768 60.3137 18.3579L49 29.6716L37.6863 18.3579C36.9052 17.5768 35.6389 17.5768 34.8579 18.3579C34.0768 19.1389 34.0768 20.4052 34.8579 21.1863L47.5858 33.9142ZM49 31L47 31L47 32.5L49 32.5L51 32.5L51 31L49 31Z" fill="var(--stroke-0, #61A200)"/>
</g>
</svg>
